<mxfile host="app.diagrams.net" agent="Mozilla/5.0 (Windows NT 10.0; Win64; x64) AppleWebKit/537.36 (KHTML, like Gecko) Chrome/127.0.0.0 Safari/537.36" version="24.7.7">
  <diagram name="PÃ¡gina-1" id="lIUOrIYA3go0RNWFjukd">
    <mxGraphModel dx="1912" dy="1048" grid="1" gridSize="10" guides="1" tooltips="1" connect="1" arrows="1" fold="1" page="1" pageScale="1" pageWidth="1169" pageHeight="827" math="0" shadow="0">
      <root>
        <mxCell id="0" />
        <mxCell id="1" parent="0" />
        <mxCell id="N_Lgt_E_jsSU6iIw0vYs-1" value="" style="rounded=1;whiteSpace=wrap;html=1;flipH=1;fillColor=none;dashed=1;fontColor=#333333;strokeColor=#666666;strokeWidth=4;" vertex="1" parent="1">
          <mxGeometry x="220" y="140" width="730" height="505" as="geometry" />
        </mxCell>
        <mxCell id="N_Lgt_E_jsSU6iIw0vYs-2" value="" style="rounded=1;whiteSpace=wrap;html=1;flipH=1;fillColor=#dae8fc;dashed=1;strokeColor=#6c8ebf;" vertex="1" parent="1">
          <mxGeometry x="235" y="200" width="700" height="190" as="geometry" />
        </mxCell>
        <mxCell id="N_Lgt_E_jsSU6iIw0vYs-3" value="" style="rounded=1;whiteSpace=wrap;html=1;flipH=1;fillColor=#dae8fc;dashed=1;strokeColor=#6c8ebf;" vertex="1" parent="1">
          <mxGeometry x="235" y="431" width="700" height="190" as="geometry" />
        </mxCell>
        <mxCell id="N_Lgt_E_jsSU6iIw0vYs-17" value="" style="rounded=1;whiteSpace=wrap;html=1;fillColor=#ffe6cc;strokeColor=#d79b00;" vertex="1" parent="1">
          <mxGeometry x="280" y="213" width="640" height="60" as="geometry" />
        </mxCell>
        <mxCell id="N_Lgt_E_jsSU6iIw0vYs-18" value="" style="rounded=1;whiteSpace=wrap;html=1;fillColor=#ffe6cc;strokeColor=#d79b00;" vertex="1" parent="1">
          <mxGeometry x="280" y="300" width="640" height="60" as="geometry" />
        </mxCell>
        <mxCell id="N_Lgt_E_jsSU6iIw0vYs-19" value="" style="rounded=1;whiteSpace=wrap;html=1;fillColor=#ffe6cc;strokeColor=#d79b00;" vertex="1" parent="1">
          <mxGeometry x="280" y="445" width="640" height="60" as="geometry" />
        </mxCell>
        <mxCell id="N_Lgt_E_jsSU6iIw0vYs-20" value="" style="rounded=1;whiteSpace=wrap;html=1;fillColor=#ffe6cc;strokeColor=#d79b00;" vertex="1" parent="1">
          <mxGeometry x="280" y="532" width="640" height="60" as="geometry" />
        </mxCell>
        <mxCell id="N_Lgt_E_jsSU6iIw0vYs-21" value="" style="endArrow=classic;html=1;rounded=0;entryX=0;entryY=0.25;entryDx=0;entryDy=0;strokeColor=#B3B3B3;" edge="1" parent="1" target="N_Lgt_E_jsSU6iIw0vYs-20">
          <mxGeometry width="50" height="50" relative="1" as="geometry">
            <mxPoint x="160" y="680" as="sourcePoint" />
            <mxPoint x="180" y="390" as="targetPoint" />
          </mxGeometry>
        </mxCell>
        <mxCell id="N_Lgt_E_jsSU6iIw0vYs-22" value="" style="endArrow=classic;html=1;rounded=0;entryX=0;entryY=0.5;entryDx=0;entryDy=0;strokeColor=#B3B3B3;" edge="1" parent="1" target="N_Lgt_E_jsSU6iIw0vYs-19">
          <mxGeometry width="50" height="50" relative="1" as="geometry">
            <mxPoint x="160" y="680" as="sourcePoint" />
            <mxPoint x="290" y="526" as="targetPoint" />
          </mxGeometry>
        </mxCell>
        <mxCell id="N_Lgt_E_jsSU6iIw0vYs-23" value="" style="endArrow=classic;html=1;rounded=0;entryX=0;entryY=0.75;entryDx=0;entryDy=0;strokeColor=#B3B3B3;" edge="1" parent="1" target="N_Lgt_E_jsSU6iIw0vYs-18">
          <mxGeometry width="50" height="50" relative="1" as="geometry">
            <mxPoint x="160" y="680" as="sourcePoint" />
            <mxPoint x="430" y="380" as="targetPoint" />
          </mxGeometry>
        </mxCell>
        <mxCell id="N_Lgt_E_jsSU6iIw0vYs-24" value="" style="endArrow=classic;html=1;rounded=0;entryX=0;entryY=0.5;entryDx=0;entryDy=0;strokeColor=#B3B3B3;" edge="1" parent="1" target="N_Lgt_E_jsSU6iIw0vYs-17">
          <mxGeometry width="50" height="50" relative="1" as="geometry">
            <mxPoint x="160" y="680" as="sourcePoint" />
            <mxPoint x="430" y="380" as="targetPoint" />
          </mxGeometry>
        </mxCell>
        <mxCell id="N_Lgt_E_jsSU6iIw0vYs-25" value="Partitions&lt;div&gt;or&lt;/div&gt;&lt;div&gt;Queues&lt;/div&gt;" style="text;html=1;align=center;verticalAlign=middle;resizable=0;points=[];autosize=1;strokeColor=none;fillColor=none;fontSize=18;" vertex="1" parent="1">
          <mxGeometry x="110" y="680" width="100" height="80" as="geometry" />
        </mxCell>
        <mxCell id="N_Lgt_E_jsSU6iIw0vYs-26" value="Soccer Topic" style="text;html=1;align=center;verticalAlign=middle;resizable=0;points=[];autosize=1;strokeColor=none;fillColor=none;fontSize=14;fontStyle=1" vertex="1" parent="1">
          <mxGeometry x="535" y="170" width="100" height="30" as="geometry" />
        </mxCell>
        <mxCell id="N_Lgt_E_jsSU6iIw0vYs-27" value="Kriket Topic" style="text;html=1;align=center;verticalAlign=middle;resizable=0;points=[];autosize=1;strokeColor=none;fillColor=none;fontSize=14;fontStyle=1" vertex="1" parent="1">
          <mxGeometry x="535" y="399" width="100" height="30" as="geometry" />
        </mxCell>
        <mxCell id="N_Lgt_E_jsSU6iIw0vYs-28" value="" style="rounded=1;whiteSpace=wrap;html=1;strokeWidth=2;fillWeight=4;hachureGap=8;hachureAngle=45;fillColor=#1ba1e2;sketch=1;" vertex="1" parent="1">
          <mxGeometry x="670" y="228" width="90" height="30" as="geometry" />
        </mxCell>
        <mxCell id="N_Lgt_E_jsSU6iIw0vYs-29" value="" style="rounded=1;whiteSpace=wrap;html=1;strokeWidth=2;fillWeight=4;hachureGap=8;hachureAngle=45;fillColor=#FF6666;sketch=1;" vertex="1" parent="1">
          <mxGeometry x="800" y="228" width="80" height="30" as="geometry" />
        </mxCell>
        <mxCell id="N_Lgt_E_jsSU6iIw0vYs-31" value="" style="rounded=1;whiteSpace=wrap;html=1;strokeWidth=2;fillWeight=4;hachureGap=8;hachureAngle=45;fillColor=#7F00FF;sketch=1;" vertex="1" parent="1">
          <mxGeometry x="550" y="228" width="80" height="30" as="geometry" />
        </mxCell>
        <mxCell id="N_Lgt_E_jsSU6iIw0vYs-32" value="" style="rounded=1;whiteSpace=wrap;html=1;strokeWidth=2;fillWeight=4;hachureGap=8;hachureAngle=45;fillColor=#1ba1e2;sketch=1;" vertex="1" parent="1">
          <mxGeometry x="795" y="315" width="90" height="30" as="geometry" />
        </mxCell>
        <mxCell id="N_Lgt_E_jsSU6iIw0vYs-33" value="" style="rounded=1;whiteSpace=wrap;html=1;strokeWidth=2;fillWeight=4;hachureGap=8;hachureAngle=45;fillColor=#7F00FF;sketch=1;" vertex="1" parent="1">
          <mxGeometry x="690" y="315" width="80" height="30" as="geometry" />
        </mxCell>
        <mxCell id="N_Lgt_E_jsSU6iIw0vYs-34" value="" style="rounded=1;whiteSpace=wrap;html=1;strokeWidth=2;fillWeight=4;hachureGap=8;hachureAngle=45;fillColor=#FF6666;sketch=1;" vertex="1" parent="1">
          <mxGeometry x="740" y="460" width="80" height="30" as="geometry" />
        </mxCell>
        <mxCell id="N_Lgt_E_jsSU6iIw0vYs-35" value="" style="rounded=1;whiteSpace=wrap;html=1;strokeWidth=2;fillWeight=4;hachureGap=8;hachureAngle=45;fillColor=#00CC00;sketch=1;" vertex="1" parent="1">
          <mxGeometry x="830" y="460" width="80" height="30" as="geometry" />
        </mxCell>
        <mxCell id="N_Lgt_E_jsSU6iIw0vYs-39" value="" style="rounded=1;whiteSpace=wrap;html=1;strokeWidth=2;fillWeight=4;hachureGap=8;hachureAngle=45;fillColor=#FF6666;sketch=1;" vertex="1" parent="1">
          <mxGeometry x="535" y="460" width="80" height="30" as="geometry" />
        </mxCell>
        <mxCell id="N_Lgt_E_jsSU6iIw0vYs-40" value="" style="rounded=1;whiteSpace=wrap;html=1;strokeWidth=2;fillWeight=4;hachureGap=8;hachureAngle=45;fillColor=#00CC00;sketch=1;" vertex="1" parent="1">
          <mxGeometry x="625" y="460" width="80" height="30" as="geometry" />
        </mxCell>
        <mxCell id="N_Lgt_E_jsSU6iIw0vYs-41" value="" style="rounded=1;whiteSpace=wrap;html=1;strokeWidth=2;fillWeight=4;hachureGap=8;hachureAngle=45;fillColor=#FF6666;sketch=1;" vertex="1" parent="1">
          <mxGeometry x="740" y="547" width="80" height="30" as="geometry" />
        </mxCell>
        <mxCell id="N_Lgt_E_jsSU6iIw0vYs-42" value="" style="rounded=1;whiteSpace=wrap;html=1;strokeWidth=2;fillWeight=4;hachureGap=8;hachureAngle=45;fillColor=#7F00FF;sketch=1;" vertex="1" parent="1">
          <mxGeometry x="830" y="547" width="80" height="30" as="geometry" />
        </mxCell>
        <mxCell id="N_Lgt_E_jsSU6iIw0vYs-43" value="PRODUCER" style="rounded=1;whiteSpace=wrap;html=1;" vertex="1" parent="1">
          <mxGeometry x="40" y="178" width="90" height="80" as="geometry" />
        </mxCell>
        <mxCell id="N_Lgt_E_jsSU6iIw0vYs-44" value="PRODUCER" style="rounded=1;whiteSpace=wrap;html=1;" vertex="1" parent="1">
          <mxGeometry x="40" y="300" width="90" height="80" as="geometry" />
        </mxCell>
        <mxCell id="N_Lgt_E_jsSU6iIw0vYs-45" value="PRODUCER" style="rounded=1;whiteSpace=wrap;html=1;" vertex="1" parent="1">
          <mxGeometry x="40" y="425" width="90" height="80" as="geometry" />
        </mxCell>
        <mxCell id="N_Lgt_E_jsSU6iIw0vYs-54" value="" style="endArrow=classic;html=1;rounded=0;" edge="1" parent="1">
          <mxGeometry width="50" height="50" relative="1" as="geometry">
            <mxPoint x="130" y="228" as="sourcePoint" />
            <mxPoint x="200" y="340" as="targetPoint" />
          </mxGeometry>
        </mxCell>
        <mxCell id="N_Lgt_E_jsSU6iIw0vYs-55" value="" style="endArrow=classic;html=1;rounded=0;" edge="1" parent="1">
          <mxGeometry width="50" height="50" relative="1" as="geometry">
            <mxPoint x="130" y="350" as="sourcePoint" />
            <mxPoint x="200" y="370" as="targetPoint" />
          </mxGeometry>
        </mxCell>
        <mxCell id="N_Lgt_E_jsSU6iIw0vYs-56" value="" style="endArrow=classic;html=1;rounded=0;" edge="1" parent="1">
          <mxGeometry width="50" height="50" relative="1" as="geometry">
            <mxPoint x="130" y="475" as="sourcePoint" />
            <mxPoint x="200" y="400" as="targetPoint" />
          </mxGeometry>
        </mxCell>
        <mxCell id="N_Lgt_E_jsSU6iIw0vYs-57" value="CONSUMER" style="rounded=1;whiteSpace=wrap;html=1;" vertex="1" parent="1">
          <mxGeometry x="1030" y="148" width="90" height="80" as="geometry" />
        </mxCell>
        <mxCell id="N_Lgt_E_jsSU6iIw0vYs-58" value="CONSUMER" style="rounded=1;whiteSpace=wrap;html=1;" vertex="1" parent="1">
          <mxGeometry x="1030" y="250" width="90" height="80" as="geometry" />
        </mxCell>
        <mxCell id="N_Lgt_E_jsSU6iIw0vYs-59" value="CONSUMER" style="rounded=1;whiteSpace=wrap;html=1;" vertex="1" parent="1">
          <mxGeometry x="1030" y="425" width="90" height="80" as="geometry" />
        </mxCell>
        <mxCell id="N_Lgt_E_jsSU6iIw0vYs-60" value="CONSUMER" style="rounded=1;whiteSpace=wrap;html=1;" vertex="1" parent="1">
          <mxGeometry x="1030" y="522" width="90" height="80" as="geometry" />
        </mxCell>
        <mxCell id="N_Lgt_E_jsSU6iIw0vYs-61" value="" style="rounded=1;whiteSpace=wrap;html=1;fillColor=none;dashed=1;strokeWidth=3;" vertex="1" parent="1">
          <mxGeometry x="1000" y="135" width="150" height="210" as="geometry" />
        </mxCell>
        <mxCell id="N_Lgt_E_jsSU6iIw0vYs-62" value="" style="rounded=1;whiteSpace=wrap;html=1;fillColor=none;dashed=1;strokeWidth=3;" vertex="1" parent="1">
          <mxGeometry x="1000" y="411" width="150" height="210" as="geometry" />
        </mxCell>
        <mxCell id="N_Lgt_E_jsSU6iIw0vYs-63" value="" style="html=1;shadow=0;dashed=0;align=center;verticalAlign=middle;shape=mxgraph.arrows2.uTurnArrow;dy=11;arrowHead=43;dx2=25;" vertex="1" parent="1">
          <mxGeometry x="940" y="491.5" width="60" height="69" as="geometry" />
        </mxCell>
        <mxCell id="N_Lgt_E_jsSU6iIw0vYs-66" value="" style="html=1;shadow=0;dashed=0;align=center;verticalAlign=middle;shape=mxgraph.arrows2.uTurnArrow;dy=11;arrowHead=43;dx2=25;" vertex="1" parent="1">
          <mxGeometry x="940" y="213" width="60" height="69" as="geometry" />
        </mxCell>
        <mxCell id="N_Lgt_E_jsSU6iIw0vYs-67" value="Consumer Group" style="text;html=1;align=center;verticalAlign=middle;resizable=0;points=[];autosize=1;strokeColor=none;fillColor=none;" vertex="1" parent="1">
          <mxGeometry x="1015" y="100" width="120" height="30" as="geometry" />
        </mxCell>
        <mxCell id="N_Lgt_E_jsSU6iIw0vYs-68" value="Consumer Group" style="text;html=1;align=center;verticalAlign=middle;resizable=0;points=[];autosize=1;strokeColor=none;fillColor=none;" vertex="1" parent="1">
          <mxGeometry x="1015" y="377" width="120" height="30" as="geometry" />
        </mxCell>
        <mxCell id="N_Lgt_E_jsSU6iIw0vYs-69" value="Kafka Components" style="text;html=1;align=center;verticalAlign=middle;resizable=0;points=[];autosize=1;strokeColor=none;fillColor=none;fontSize=31;fontStyle=1;fontFamily=Comic Sans MS;" vertex="1" parent="1">
          <mxGeometry x="445" y="8" width="290" height="50" as="geometry" />
        </mxCell>
      </root>
    </mxGraphModel>
  </diagram>
</mxfile>
